# xmcd
#
# Track frame offsets: 
#        150
#        17823
#        40831
#        54800
#        67282
#        93645
#        109148
#        124799
#        140377
#        160165
#        179379
#        196933
#        213261
#        232435
#        247607
#        264304
#        276695
#        292898
#
# Disc length: 4184 seconds
#
# Revision: 1
# Processed by: cddbd v1.5.2PL0 Copyright (c) Steve Scherf et al.
# Submitted via: ExactAudioCopy v1.0b3
#
DISCID=0c105612
DTITLE=Various Artist - Ultimate America - Disc 4
DYEAR=2015
DGENRE=Country
TTITLE0=Alice Cooper - Lost in America
TTITLE1=The Guess Who - American Woman
TTITLE2=Wild Cherry - Play That Funky Music
TTITLE3=Redbone - The Witch Queen of New Orleans
TTITLE4=Mountain - Nantucket Sleighride
TTITLE5=Kansas - Carry on Wayward Son
TTITLE6=The Calling - Wherever You Will Go
TTITLE7=Soul Asylum - Runaway Train
TTITLE8=The Fray - How to Save a Life
TTITLE9=The Hooters - Satellite
TTITLE10=Spin Doctors -  Little Miss Can't Be Wrong
TTITLE11=Train - Hey, Soul Sister
TTITLE12=Mr. Mister - Kyrie
TTITLE13=Patti Smith Group - Because the Night
TTITLE14=Southside Johnny and The Asbury Jukes - I Don't Want to Go Home
TTITLE15=Johnny Winter - Johnny B. Goode
TTITLE16=Keb' Mo' - America the Beautiful
TTITLE17=Elvis Presley - An American Trilogy
EXTD=
EXTT0=
EXTT1=
EXTT2=
EXTT3=
EXTT4=
EXTT5=
EXTT6=
EXTT7=
EXTT8=
EXTT9=
EXTT10=
EXTT11=
EXTT12=
EXTT13=
EXTT14=
EXTT15=
EXTT16=
EXTT17=
PLAYORDER=
